<?xml version="1.0" standalone="no"?>
<!DOCTYPE svg PUBLIC "-//W3C//DTD SVG 20010904//EN"
 "http://www.w3.org/TR/2001/REC-SVG-20010904/DTD/svg10.dtd">
<svg version="1.0" xmlns="http://www.w3.org/2000/svg"
 width="500.000000pt" height="500.000000pt" viewBox="0 0 500.000000 500.000000"
 preserveAspectRatio="xMidYMid meet">

<g transform="translate(0.000000,500.000000) scale(0.100000,-0.100000)"
fill="#000000" stroke="none">
<path d="M3101 4268 c-13 -45 -10 -68 9 -68 13 0 27 29 34 70 3 19 3 29 0 23
-8 -19 -22 -16 -26 5 -2 9 -9 -3 -17 -30z"/>
<path d="M1702 4291 c-7 -4 -25 -6 -39 -3 -24 5 -25 3 -19 -24 14 -57 55 -134
71 -134 25 0 27 23 6 71 l-20 44 44 23 c52 26 58 34 16 22 -16 -4 -33 -4 -38
1 -4 4 -14 5 -21 0z"/>
<path d="M1860 4291 c0 -7 -6 -11 -15 -7 -19 7 -19 5 1 -44 16 -40 40 -52 50
-26 3 8 -4 31 -15 53 -11 21 -20 32 -21 24z"/>
<path d="M2826 4288 c3 -5 10 -6 15 -3 13 9 11 12 -6 12 -8 0 -12 -4 -9 -9z"/>
<path d="M2985 4280 c10 -34 23 -46 35 -34 13 13 2 46 -12 38 -6 -4 -15 0 -20
7 -6 10 -7 6 -3 -11z"/>
<path d="M3362 4271 c-72 -72 -45 -184 52 -221 39 -14 88 2 121 42 33 39 29
57 -20 85 -36 20 -42 21 -55 7 -13 -14 -12 -18 14 -39 28 -22 28 -23 8 -34
-56 -30 -120 13 -108 73 20 98 110 126 159 51 12 -19 27 -33 32 -32 19 6 16
42 -5 64 -17 19 -29 22 -90 20 -38 -2 -71 1 -73 6 -1 5 -17 -5 -35 -22z"/>
<path d="M1984 4272 c21 -22 91 -22 112 0 15 14 10 16 -56 16 -67 0 -71 -1
-56 -16z"/>
<path d="M1384 4236 c-7 -18 115 -226 131 -226 7 0 17 6 24 13 8 10 -5 39 -55
120 -62 101 -88 125 -100 93z"/>
<path d="M2064 4215 c-7 -18 3 -35 21 -35 18 0 26 15 19 34 -8 20 -33 21 -40
1z"/>
<path d="M3814 4186 c-6 -17 22 -76 37 -76 18 0 21 28 4 59 -17 33 -32 40 -41
17z"/>
<path d="M3644 4131 c-45 -28 -77 -85 -77 -138 0 -36 5 -50 29 -73 29 -28 44
-33 96 -31 37 1 103 66 116 114 30 107 -70 185 -164 128z m111 -55 c20 -31 12
-67 -25 -106 -58 -62 -136 -23 -110 54 23 70 103 101 135 52z"/>
<path d="M1197 4113 c-15 -14 -5 -62 32 -168 39 -110 55 -131 80 -101 9 11 10
20 2 35 -15 27 -16 25 30 62 36 28 43 30 64 19 26 -14 45 -7 45 18 0 12 -36
39 -106 80 -101 59 -132 71 -147 55z m93 -79 c22 -15 40 -29 40 -33 0 -3 -12
-14 -25 -24 l-25 -18 -20 46 c-29 67 -28 67 30 29z"/>
<path d="M3829 3889 c-49 -45 -88 -86 -86 -92 2 -6 10 -15 19 -21 13 -7 27 1
68 37 29 26 56 47 60 47 4 0 -1 -37 -11 -82 -38 -170 -23 -179 107 -61 61 55
93 91 89 100 -3 8 -5 17 -5 19 0 16 -40 -3 -86 -42 -63 -54 -64 -51 -38 70 29
132 8 137 -117 25z"/>
<path d="M1025 3916 c-34 -15 -105 -89 -105 -110 0 -8 15 -27 34 -44 19 -16
33 -38 33 -48 -1 -13 5 -19 19 -19 11 -1 38 -15 60 -33 21 -18 42 -32 46 -32
8 0 71 77 87 107 48 93 -77 222 -174 179z m75 -63 c52 -36 64 -78 34 -121 -19
-27 -36 -28 -58 -3 -15 16 -15 19 -1 31 8 7 15 18 15 25 0 20 -23 24 -42 8
-13 -11 -21 -12 -37 -3 -28 15 -26 34 5 59 32 25 52 26 84 4z"/>
<path d="M1384 3885 c-9 -21 3 -45 21 -45 21 0 30 27 15 45 -16 19 -29 19 -36
0z"/>
<path d="M1073 3250 c-220 -58 -324 -201 -311 -428 9 -154 76 -238 266 -336
132 -67 162 -94 162 -146 0 -31 -6 -44 -32 -65 -29 -24 -37 -26 -82 -21 -82
11 -165 68 -232 160 l-20 28 -52 -190 c-29 -104 -52 -194 -52 -200 0 -15 101
-51 210 -74 130 -28 395 -30 489 -4 142 39 241 117 282 223 30 80 37 210 14
288 -35 120 -84 165 -305 275 -151 75 -180 99 -180 151 0 52 35 79 104 79 74
0 140 -35 209 -109 31 -34 57 -60 57 -57 0 3 22 78 49 168 27 90 51 172 53
182 2 15 -8 23 -52 39 -166 59 -430 76 -577 37z"/>
<path d="M2296 3254 c-196 -47 -344 -200 -408 -419 -33 -116 -33 -327 1 -435
57 -183 149 -306 276 -369 153 -76 341 -93 718 -65 l77 6 0 339 0 339 -230 0
-229 0 -3 -102 -3 -103 -45 3 c-89 7 -144 58 -156 144 -14 105 48 196 149 218
66 15 174 -3 258 -44 29 -14 54 -24 55 -23 1 1 29 96 63 211 42 146 57 213 50
222 -18 21 -111 56 -204 75 -108 22 -283 24 -369 3z"/>
<path d="M3157 3244 c-11 -11 -8 -639 3 -739 29 -256 118 -403 300 -494 206
-103 426 -66 589 98 76 76 120 157 153 276 20 75 22 102 22 470 l1 390 -230 0
-230 0 -5 -351 c-5 -328 -6 -353 -24 -373 -22 -24 -64 -27 -92 -7 -18 14 -19
33 -24 373 l-5 358 -226 3 c-124 1 -228 -1 -232 -4z"/>
<path d="M4656 1873 c-6 -14 -5 -15 5 -6 7 7 10 15 7 18 -3 3 -9 -2 -12 -12z"/>
<path d="M4622 1797 c2 -7 -5 -33 -16 -57 -10 -25 -23 -56 -28 -70 -6 -14 -17
-37 -24 -52 -8 -14 -14 -30 -14 -35 0 -19 -146 -283 -212 -383 -38 -58 -57
-91 -43 -75 98 113 272 428 329 596 29 85 30 89 16 89 -6 0 -10 -6 -8 -13z"/>
<path d="M3976 1502 c-3 -10 0 -39 8 -65 7 -25 11 -48 8 -51 -3 -4 -27 -6 -52
-6 -51 0 -77 -18 -66 -46 5 -12 20 -15 84 -13 75 3 80 1 125 -30 39 -28 49
-32 62 -21 23 19 18 36 -18 59 -51 31 -67 53 -85 122 -14 51 -22 65 -39 67
-14 2 -23 -3 -27 -16z"/>
<path d="M930 1473 c-15 -19 -20 -35 -16 -53 15 -64 18 -98 7 -104 -18 -11
-45 10 -56 46 -13 37 -48 50 -59 22 -11 -29 33 -104 71 -122 33 -16 36 -15 71
3 34 19 37 23 37 65 -1 25 -3 58 -5 75 -4 23 -1 30 13 33 12 3 22 -7 32 -32
10 -23 22 -36 34 -36 38 0 33 55 -9 100 -38 41 -89 42 -120 3z"/>
<path d="M3776 1259 c-31 -33 -56 -64 -56 -68 0 -5 7 -14 15 -21 13 -11 20 -9
41 11 l25 23 73 -73 c51 -51 79 -72 90 -68 30 12 16 42 -56 114 -70 71 -71 73
-54 92 20 22 15 51 -8 51 -7 0 -39 -27 -70 -61z"/>
<path d="M1104 1254 c-43 -19 -96 -42 -116 -51 -25 -10 -38 -22 -38 -34 0 -24
22 -34 48 -20 16 8 25 3 57 -29 35 -36 38 -42 26 -66 -15 -34 2 -62 26 -42 22
18 125 228 119 243 -13 35 -41 34 -122 -1z m46 -72 c-26 -54 -33 -56 -61 -25
-13 14 -19 28 -14 30 6 2 28 12 50 22 22 10 41 17 42 16 2 -1 -6 -20 -17 -43z"/>
<path d="M3664 1145 c-4 -9 20 -46 65 -99 85 -100 96 -110 116 -102 28 10 15
36 -61 126 -75 88 -108 108 -120 75z"/>
<path d="M1240 1051 c-76 -91 -92 -126 -56 -126 22 0 179 180 173 198 -2 7
-12 13 -23 15 -13 1 -41 -25 -94 -87z"/>
<path d="M3562 1063 c-32 -16 -62 -57 -62 -87 0 -30 24 -67 47 -72 12 -3 46
-1 74 6 41 10 53 10 59 0 13 -21 0 -39 -42 -61 -26 -13 -38 -26 -36 -37 5 -26
49 -26 88 0 63 43 75 103 29 149 -18 18 -29 20 -68 15 -81 -12 -85 -12 -89 7
-2 12 7 22 32 32 37 16 45 32 24 53 -15 15 -16 15 -56 -5z"/>
<path d="M4190 1018 c-29 -38 -30 -40 -6 -18 25 23 52 60 43 60 -2 0 -19 -19
-37 -42z"/>
<path d="M1373 1026 c-77 -35 -110 -153 -58 -214 32 -38 76 -56 119 -48 38 7
86 50 86 77 0 21 -59 69 -83 69 -22 0 -23 -46 -2 -54 21 -8 19 -23 -4 -36 -28
-14 -67 5 -81 41 -10 23 -9 35 6 66 38 77 108 83 144 12 14 -27 27 -39 38 -37
59 11 -21 126 -93 134 -23 2 -53 -2 -72 -10z"/>
<path d="M3347 920 c-26 -16 -47 -37 -47 -47 0 -17 106 -209 120 -218 13 -8
40 6 40 21 0 8 -9 33 -20 54 l-20 40 52 -21 c77 -31 83 -32 97 -15 19 22 1 41
-54 56 -42 12 -44 13 -30 33 21 30 19 70 -6 101 -28 35 -72 34 -132 -4z m99
-52 c5 -16 1 -27 -16 -40 -30 -24 -37 -23 -54 9 -12 24 -12 29 3 40 26 20 59
16 67 -9z"/>
<path d="M1653 888 c-38 -10 -79 -56 -94 -107 -34 -113 63 -199 157 -142 37
23 74 93 74 142 0 27 -31 99 -42 99 -2 0 -17 4 -33 8 -17 5 -44 5 -62 0z m68
-58 c37 -20 16 -125 -30 -150 -88 -46 -128 77 -47 142 24 20 49 22 77 8z"/>
<path d="M3162 831 c-35 -15 -68 -33 -73 -38 -17 -17 73 -237 98 -241 29 -4
157 54 161 73 7 33 -14 35 -77 10 -35 -15 -65 -25 -66 -23 -2 2 -6 14 -10 28
-6 23 -2 27 44 44 62 22 80 41 59 62 -13 13 -21 12 -72 -10 l-57 -25 -11 24
c-13 30 -17 26 55 58 44 20 58 31 55 44 -5 27 -36 25 -106 -6z"/>
<path d="M1866 801 c-4 -5 -24 -60 -46 -123 -34 -97 -37 -115 -25 -127 21 -22
42 1 61 68 18 61 31 83 38 60 73 -246 81 -251 141 -76 39 117 41 142 10 142
-15 0 -26 -15 -45 -67 -14 -37 -27 -68 -30 -68 -3 0 -20 45 -39 100 -30 93
-48 118 -65 91z"/>
<path d="M3005 768 c-3 -7 -8 -51 -13 -98 l-7 -85 -53 73 c-53 72 -83 89 -96
55 -4 -11 19 -49 71 -119 82 -108 92 -117 113 -104 15 9 38 245 27 274 -8 19
-36 21 -42 4z"/>
<path d="M2212 703 c-3 -10 -7 -62 -7 -116 l0 -99 33 -29 c47 -42 102 -41 147
4 28 28 34 43 39 93 4 32 8 73 10 90 5 38 -6 57 -30 52 -16 -3 -20 -16 -27
-88 -4 -46 -14 -94 -22 -107 -19 -29 -58 -30 -85 -3 -22 22 -24 48 -10 134 7
42 6 63 -1 73 -16 18 -38 16 -47 -4z"/>
<path d="M2751 706 c-9 -11 -10 -25 -2 -53 5 -21 15 -73 22 -115 12 -81 25
-103 53 -92 21 8 20 26 -7 159 -23 112 -38 135 -66 101z"/>
<path d="M2652 697 c-7 -8 -9 -41 -6 -88 l5 -74 -74 79 c-57 61 -78 78 -92 72
-16 -6 -17 -15 -11 -83 3 -42 6 -95 6 -119 0 -47 21 -77 47 -67 13 5 15 18 9
92 l-6 86 47 -55 c100 -115 99 -114 118 -106 16 6 17 16 11 128 -8 136 -23
173 -54 135z"/>
</g>
</svg>
